<svg xmlns="http://www.w3.org/2000/svg" viewBox="0 0 900 902">
    <circle cx="449.5" cy="451.5" r="400" style="fill:#8cc63f"/>
    <path d="M449.5,29.5A422.12,422.12,0,0,1,613.75,840.35a422.12,422.12,0,0,1-328.5-777.7A419.29,419.29,0,0,1,449.5,29.5m0-23c-245.77,0-445,199.23-445,445s199.23,445,445,445,445-199.23,445-445-199.23-445-445-445Z" style="fill:#8cc63f"/>
    <path d="M251.43,358.85h34.08l-13.44,169.2h-38.4l7.2-88.8L203.43,500H175.11l-27.84-57.84-7,85.92h-38.4l13.44-169.2h34.8l42.48,94.56Z" style="fill:#fff"/>
    <path d="M341.29,520.49a69.63,69.63,0,0,1-29.16-28.32q-10.22-18.36-10.2-43.56,0-27.36,10.56-48.36a76.39,76.39,0,0,1,30-32.4q19.44-11.4,45.12-11.4,25.42,0,44.4,10a69.55,69.55,0,0,1,29.16,28.44q10.2,18.48,10.2,43.44,0,27.36-10.68,48.24a78.1,78.1,0,0,1-30.12,32.4q-19.44,11.52-44.88,11.52T341.29,520.49ZM415.93,481q11.28-15.36,11.28-42.72,0-22.8-10.32-35.28t-28.8-12.48q-19.68,0-31,15.48t-11.28,42.6q0,23,10.2,35.4t29.16,12.36Q404.65,496.37,415.93,481Z" style="fill:#fff"/>
    <path d="M488.14,528.05l13.2-169.2H545.5l-13.2,169.2Z" style="fill:#fff"/>
    <path d="M686.12,358.85H727.4L714,528.05H681.08L612.2,433l-7.92,95h-41l13.44-169.2h32.16l69.6,95.52Z" style="fill:#fff"/><path d="M745.32,484.37h44.4l-3.6,43.68h-44.4Zm10.56-14.88-4.56-110.88,52.08.24L781.56,469.49Z" style="fill:#fff"/>
</svg>