<?xml version="1.0" encoding="utf-8"?>
<svg version="1.1" xmlns="http://www.w3.org/2000/svg" xmlns:xlink="http://www.w3.org/1999/xlink" x="0px" y="0px" viewBox="0 0 2168.07 815.62" style="enable-background:new 0 0 2168.07 815.62;" xml:space="preserve">
  <circle style="fill:#2bbd98;" cx="404.9" cy="408.42" r="400"/>
  <path style="fill:#FFFFFF;" d="M472.13,150.47h99.4l-39.2,493.5h-112l21-259l-109.2,177.1h-82.6l-81.2-168.7l-20.3,250.6h-112
    l39.2-493.5h101.5l123.9,275.8L472.13,150.47z"/>
  <path style="fill:#FFFFFF;" d="M624.45,516.57h129.5l-10.5,127.4h-129.5L624.45,516.57z M655.25,473.17l-13.3-323.4l151.9,0.7
    l-63.7,322.7H655.25z"/>
  <path style="fill:#4e4f59;" d="M990.93,624.88c-13.9-14.2-20.85-35.1-20.85-62.7v-129.9h18.6v132c0,43.6,21.2,65.4,63.6,65.4
    c21,0,36.85-5.5,47.55-16.5c10.7-11,16.05-27.3,16.05-48.9v-132h18.3v129.9c0,27.6-6.95,48.5-20.85,62.7
    c-13.9,14.2-34.25,21.3-61.05,21.3C1025.28,646.18,1004.83,639.08,990.93,624.88z"/>
  <path style="fill:#4e4f59;" d="M1344.21,643.78h-20.4l-35.7-67.8c-4.8-9.2-10.4-15.5-16.8-18.9c-6.4-3.4-15.2-5.1-26.4-5.1h-44.1
    v91.8h-18.6v-211.5h84.6c22.2,0,39.3,5.05,51.3,15.15c12,10.1,18,24.85,18,44.25c0,16.4-4.75,29.55-14.25,39.45
    c-9.5,9.9-23.05,15.95-40.65,18.15c5.2,1.6,9.85,4.35,13.95,8.25c4.1,3.9,7.85,9.05,11.25,15.45L1344.21,643.78z M1265.61,536.08
    c34.8,0,52.2-14.9,52.2-44.7c0-14.6-4.3-25.45-12.9-32.55c-8.6-7.1-21.7-10.65-39.3-10.65h-65.1v87.9H1265.61z"/>
  <path style="fill:#4e4f59;" d="M1378.64,643.78v-211.5h18.6v195.3h109.2v16.2H1378.64z"/>
  <path style="fill:#4e4f59;" d="M1707.89,643.78l-24.3-56.4h-114l-24.3,56.4h-18.9l91.8-211.5h16.8l91.8,211.5H1707.89z
     M1576.49,571.18h100.2l-50.1-117L1576.49,571.18z"/>
  <path style="fill:#4e4f59;" d="M1765.16,624.88c-13.9-14.2-20.85-35.1-20.85-62.7v-129.9h18.6v132c0,43.6,21.2,65.4,63.6,65.4
    c21,0,36.85-5.5,47.55-16.5c10.7-11,16.05-27.3,16.05-48.9v-132h18.3v129.9c0,27.6-6.95,48.5-20.85,62.7
    c-13.9,14.2-34.25,21.3-61.05,21.3C1799.51,646.18,1779.06,639.08,1765.16,624.88z"/>
  <path style="fill:#4e4f59;" d="M2100.58,553.33c6.7,8.9,10.05,19.95,10.05,33.15c0,18.6-6.05,32.8-18.15,42.6
    c-12.1,9.8-29.25,14.7-51.45,14.7h-84.6v-211.5h81.6c21.6,0,38.3,4.8,50.1,14.4c11.8,9.6,17.7,23.3,17.7,41.1
    c0,11.4-2.95,21.2-8.85,29.4c-5.9,8.2-14.15,14.3-24.75,18.3C2084.43,538.48,2093.88,544.43,2100.58,553.33z M1974.73,528.28h60.6
    c17,0,29.9-3.5,38.7-10.5c8.8-7,13.2-17.1,13.2-30.3c0-26.2-17.3-39.3-51.9-39.3h-60.6V528.28z M2079.28,617.83
    c8.5-6.7,12.75-16.95,12.75-30.75c0-28.4-17.4-42.6-52.2-42.6h-65.1v83.4h65.1C2057.63,627.88,2070.78,624.53,2079.28,617.83z"/>
  <path style="fill:#4e4f59;" d="M1140.48,150.28h42.6v211.5h-48v-111l-40.8,75.9h-35.4l-40.5-74.1l-0.3,109.2h-48v-211.5h43.5
    l63.6,120.3L1140.48,150.28z"/>
  <path style="fill:#4e4f59;" d="M1263.03,351.13c-15.9-8.9-28.15-21.5-36.75-37.8c-8.6-16.3-12.9-35.45-12.9-57.45
    c0-22,4.3-41.15,12.9-57.45c8.6-16.3,20.85-28.85,36.75-37.65c15.9-8.8,34.65-13.2,56.25-13.2c21.6,0,40.35,4.4,56.25,13.2
    c15.9,8.8,28.1,21.35,36.6,37.65c8.5,16.3,12.75,35.45,12.75,57.45c0,22-4.3,41.15-12.9,57.45c-8.6,16.3-20.85,28.9-36.75,37.8
    c-15.9,8.9-34.55,13.35-55.95,13.35C1297.68,364.48,1278.93,360.03,1263.03,351.13z M1356.78,305.23c9-11.3,13.5-27.75,13.5-49.35
    c0-21.6-4.55-38-13.65-49.2c-9.1-11.2-21.55-16.8-37.35-16.8c-16,0-28.5,5.55-37.5,16.65s-13.5,27.55-13.5,49.35
    c0,21.8,4.5,38.3,13.5,49.5c9,11.2,21.5,16.8,37.5,16.8C1335.28,322.18,1347.78,316.53,1356.78,305.23z"/>
  <path style="fill:#4e4f59;" d="M1454.79,361.78v-211.5h55.2v211.5H1454.79z"/>
  <path style="fill:#4e4f59;" d="M1685.67,150.28h51.6v211.5h-40.8l-96.6-120.9v120.9h-51.3v-211.5h40.2l96.9,120.9V150.28z"/>
</svg>
